<svg x="0px" y="0px" xml:space="preserve" xmlns="http://www.w3.org/2000/svg" viewBox="0 0 653.61023 638.26898">
  <path d="M768.8 528.4c-2.1-1.4-6.4-3.7-6.8-8.2-.2-2.2 2.3-5.1 9.1-9.4 31.8-20.2 79.8-48.6 76.8-123.4-3.5-81.9-99.2-172-320.3-165.8-111.1 3.2-220.8 37.8-282.8 91.6-9.7 8.3-33.8 28.7-33 37.5 1.8 7.2 6.2 13.4 12.2 17.6 10.4 9.7 27.9 28.1 27.9 28.1l-.8 299.4c-6.8 7.1-15.5 15.5-26.4 27-6 6.2-12.9 10.5-13.1 18.5-.2 6.4 26.6 26 37.5 34.4 87.1 55.9 188.6 85 292 83.7 180.9 3.9 322.7-61 324.1-186.4.9-75.3-65.1-123.7-96.4-144.4M537 263.1c47.6-.4 143.6 4.7 141 123.5-2.1 98.6-58 127.7-133.2 126.1-79.2-1.7-133.2-26.7-137-123.9-4.2-107.1 76.3-125.3 129.2-125.7m14.4 555.3c-85.2-1.9-142.8-29-147.3-134.7-4.7-111.6 82.1-136.1 139-136.6 51.2-.4 154.5 5.2 151.6 134.3-2.3 107.1-62.3 138.8-143.3 137" style="fill:#334e45" transform="translate(-211.59889 -221.29704)"/>
</svg>
